<svg width="356" height="98" viewBox="0 0 356 98" fill="none" xmlns="http://www.w3.org/2000/svg">
<path d="M36.498 29.316V64H32.174V29.316H36.498ZM77.1383 55.306H61.2223L57.2663 64H52.6203L69.1803 27.844L85.7403 64H81.0943L77.1383 55.306ZM75.3443 51.35L69.1803 37.32L63.0163 51.35H75.3443ZM92.186 42.472V45.186H92.278C92.8914 44.2047 93.704 43.4073 94.716 42.794C95.7587 42.15 96.8474 41.828 97.982 41.828C100.65 41.828 102.72 43.1007 104.192 45.646C104.867 44.4807 105.802 43.5607 106.998 42.886C108.194 42.1807 109.467 41.828 110.816 41.828C115.569 41.828 117.946 44.9253 117.946 51.12V64H113.806V51.81C113.806 50.982 113.76 50.2613 113.668 49.648C113.607 49.004 113.438 48.3447 113.162 47.67C112.917 46.9647 112.503 46.428 111.92 46.06C111.368 45.692 110.663 45.508 109.804 45.508C108.945 45.508 108.209 45.692 107.596 46.06C107.013 46.3973 106.553 46.8267 106.216 47.348C105.909 47.8387 105.664 48.4673 105.48 49.234C105.296 50.0007 105.173 50.6907 105.112 51.304C105.081 51.9173 105.066 52.6227 105.066 53.42V64H100.926V52.592C100.926 51.856 100.911 51.2427 100.88 50.752C100.849 50.2613 100.757 49.648 100.604 48.912C100.481 48.176 100.282 47.5933 100.006 47.164C99.7607 46.7347 99.3774 46.3513 98.856 46.014C98.3347 45.6767 97.706 45.508 96.97 45.508C95.9274 45.508 95.0534 45.7533 94.348 46.244C93.6734 46.704 93.1827 47.3787 92.876 48.268C92.6 49.1267 92.416 49.9393 92.324 50.706C92.232 51.4727 92.186 52.3773 92.186 53.42V64H88.046V42.472H92.186ZM136.837 64V29.316H144.013C149.625 29.316 154.271 30.8033 157.951 33.778C161.631 36.722 163.471 40.954 163.471 46.474C163.471 52.1473 161.646 56.4867 157.997 59.492C154.347 62.4973 149.64 64 143.875 64H136.837ZM141.161 33.272V60.044H142.679C145.009 60.044 147.125 59.814 149.027 59.354C150.928 58.894 152.645 58.158 154.179 57.146C155.743 56.134 156.954 54.7387 157.813 52.96C158.702 51.1813 159.147 49.0807 159.147 46.658C159.147 44.2047 158.702 42.0887 157.813 40.31C156.954 38.5313 155.743 37.1513 154.179 36.17C152.615 35.158 150.882 34.422 148.981 33.962C147.11 33.502 145.009 33.272 142.679 33.272H141.161ZM186.242 53.926H169.82C169.851 55.858 170.464 57.5293 171.66 58.94C172.856 60.3507 174.405 61.056 176.306 61.056C177.809 61.056 179.036 60.7187 179.986 60.044C180.968 59.3387 181.888 58.2807 182.746 56.87L186.242 58.848C185.23 60.688 183.835 62.1293 182.056 63.172C180.308 64.2147 178.376 64.736 176.26 64.736C173.04 64.736 170.464 63.6627 168.532 61.516C166.631 59.3693 165.68 56.6707 165.68 53.42C165.68 49.9853 166.585 47.1947 168.394 45.048C170.204 42.9013 172.795 41.828 176.168 41.828C179.45 41.828 181.949 42.9013 183.666 45.048C185.384 47.164 186.242 49.9087 186.242 53.282V53.926ZM170.05 50.798H182.102C181.857 49.142 181.213 47.8387 180.17 46.888C179.128 45.9067 177.794 45.416 176.168 45.416C174.574 45.416 173.209 45.922 172.074 46.934C170.97 47.946 170.296 49.234 170.05 50.798ZM190.993 42.472L197.157 55.904L203.367 42.472H208.013L197.157 64.736L186.347 42.472H190.993ZM229.188 53.926H212.766C212.796 55.858 213.41 57.5293 214.606 58.94C215.802 60.3507 217.35 61.056 219.252 61.056C220.754 61.056 221.981 60.7187 222.932 60.044C223.913 59.3387 224.833 58.2807 225.692 56.87L229.188 58.848C228.176 60.688 226.78 62.1293 225.002 63.172C223.254 64.2147 221.322 64.736 219.206 64.736C215.986 64.736 213.41 63.6627 211.478 61.516C209.576 59.3693 208.626 56.6707 208.626 53.42C208.626 49.9853 209.53 47.1947 211.34 45.048C213.149 42.9013 215.74 41.828 219.114 41.828C222.395 41.828 224.894 42.9013 226.612 45.048C228.329 47.164 229.188 49.9087 229.188 53.282V53.926ZM212.996 50.798H225.048C224.802 49.142 224.158 47.8387 223.116 46.888C222.073 45.9067 220.739 45.416 219.114 45.416C217.519 45.416 216.154 45.922 215.02 46.934C213.916 47.946 213.241 49.234 212.996 50.798ZM237.067 24.072V64H232.927V24.072H237.067ZM244.32 45.14C246.559 42.932 249.288 41.828 252.508 41.828C255.728 41.828 258.442 42.932 260.65 45.14C262.889 47.348 264.008 50.062 264.008 53.282C264.008 56.502 262.889 59.216 260.65 61.424C258.442 63.632 255.728 64.736 252.508 64.736C249.288 64.736 246.559 63.632 244.32 61.424C242.112 59.216 241.008 56.502 241.008 53.282C241.008 50.062 242.112 47.348 244.32 45.14ZM257.706 47.992C256.265 46.52 254.532 45.784 252.508 45.784C250.484 45.784 248.751 46.52 247.31 47.992C245.869 49.464 245.148 51.2273 245.148 53.282C245.148 55.306 245.869 57.0693 247.31 58.572C248.751 60.044 250.484 60.78 252.508 60.78C254.532 60.78 256.265 60.044 257.706 58.572C259.147 57.0693 259.868 55.306 259.868 53.282C259.868 51.2273 259.147 49.464 257.706 47.992ZM278.178 61.056C280.355 61.056 282.057 60.3047 283.284 58.802C284.541 57.2993 285.17 55.444 285.17 53.236C285.17 51.0587 284.541 49.234 283.284 47.762C282.026 46.2593 280.324 45.508 278.178 45.508C276.123 45.508 274.467 46.2747 273.21 47.808C271.983 49.3107 271.37 51.12 271.37 53.236C271.37 55.3827 271.983 57.2227 273.21 58.756C274.436 60.2893 276.092 61.056 278.178 61.056ZM271.6 42.472V46.06H271.692C273.562 43.2387 276.062 41.828 279.19 41.828C282.195 41.828 284.633 42.9473 286.504 45.186C288.374 47.394 289.31 50.0313 289.31 53.098C289.31 56.3487 288.39 59.1087 286.55 61.378C284.71 63.6167 282.195 64.736 279.006 64.736C277.534 64.736 276.154 64.368 274.866 63.632C273.608 62.896 272.55 61.8993 271.692 60.642H271.6V76.328H267.46V42.472H271.6ZM312.248 53.926H295.826C295.857 55.858 296.47 57.5293 297.666 58.94C298.862 60.3507 300.411 61.056 302.312 61.056C303.815 61.056 305.042 60.7187 305.992 60.044C306.974 59.3387 307.894 58.2807 308.752 56.87L312.248 58.848C311.236 60.688 309.841 62.1293 308.062 63.172C306.314 64.2147 304.382 64.736 302.266 64.736C299.046 64.736 296.47 63.6627 294.538 61.516C292.637 59.3693 291.686 56.6707 291.686 53.42C291.686 49.9853 292.591 47.1947 294.4 45.048C296.21 42.9013 298.801 41.828 302.174 41.828C305.456 41.828 307.955 42.9013 309.672 45.048C311.39 47.164 312.248 49.9087 312.248 53.282V53.926ZM296.056 50.798H308.108C307.863 49.142 307.219 47.8387 306.176 46.888C305.134 45.9067 303.8 45.416 302.174 45.416C300.58 45.416 299.215 45.922 298.08 46.934C296.976 47.946 296.302 49.234 296.056 50.798ZM320.219 42.472V45.968H320.357C320.879 44.68 321.645 43.668 322.657 42.932C323.7 42.196 324.896 41.828 326.245 41.828C327.411 41.828 328.545 42.1807 329.649 42.886L327.763 46.658C327.089 46.0753 326.245 45.784 325.233 45.784C324.16 45.784 323.271 46.014 322.565 46.474C321.86 46.9033 321.339 47.532 321.001 48.36C320.695 49.1573 320.48 49.9547 320.357 50.752C320.265 51.5187 320.219 52.408 320.219 53.42V64H316.079V42.472H320.219Z" fill="#FAFAFA"/>
<path d="M0 0H67L5.34874 6.19328L0 67V0Z" fill="#FAFAFA"/>
<path d="M356 98H289L350.651 91.8067L356 31V98Z" fill="#FAFAFA"/>
</svg>
