<svg width="1440" height="192" viewBox="0 0 1440 192" fill="none" xmlns="http://www.w3.org/2000/svg">
<path fill-rule="evenodd" clip-rule="evenodd" d="M0 173.846H30C61 173.777 120 173.777 180 173.777C241.5 173.777 300 173.369 360 173.777C420 174.186 485 173.777 545 173.777C598 173.777 663.5 173.369 723.5 173.777C783.5 174.186 881 173.777 901.5 173.777C958.559 173.777 1021 172.709 1080 172.212C1136.5 171.735 1200 172.212 1260 172.212C1320 172.212 1380 173.029 1410 173.437L1440 173.846V191H1410C1380 191 1320 191 1260 191C1200 191 1140 191 1080 191C1020 191 960 191 900 191C840 191 780 191 720 191C660 191 600 191 540 191C480 191 420 191 360 191C300 191 240 191 180 191C120 191 60 191 30 191H0V173.846Z" fill="#174B88" fill-opacity="0.6"/>
<path fill-rule="evenodd" clip-rule="evenodd" d="M0 15.1304H30C60 15.1304 120 15.1304 180 41.6087C240 68.087 300 121.043 360 124.826C420 128.609 480 83.2174 540 83.2174C600 83.2174 660 128.609 720 132.391C780 136.174 840 98.3478 900 71.8696C960 45.3913 1020 30.2609 1080 18.913C1140 7.56522 1200 0 1260 0C1320 0 1380 7.56522 1410 11.3478L1440 15.1304V174H1410C1380 174 1320 174 1260 174C1200 174 1140 174 1080 174C1020 174 960 174 900 174C840 174 780 174 720 174C660 174 600 174 540 174C480 174 420 174 360 174C300 174 240 174 180 174C120 174 60 174 30 174H0V15.1304Z" fill="#174B88" fill-opacity="0.6"/>
<path fill-rule="evenodd" clip-rule="evenodd" d="M1 33.1304H30.9792C60.9583 33.1304 120.917 33.1304 180.875 59.6087C240.833 86.087 300.792 139.043 360.75 142.826C420.708 146.609 480.667 101.217 540.625 101.217C600.583 101.217 660.542 146.609 720.5 150.391C780.458 154.174 840.417 116.348 900.375 89.8696C960.333 63.3913 1020.29 48.2609 1080.25 36.913C1140.21 25.5652 1200.17 18 1260.12 18C1320.08 18 1380.04 25.5652 1410.02 29.3478L1440 33.1304V192H1410.02C1380.04 192 1320.08 192 1260.12 192C1200.17 192 1140.21 192 1080.25 192C1020.29 192 960.333 192 900.375 192C840.417 192 780.458 192 720.5 192C660.542 192 600.583 192 540.625 192C480.667 192 420.708 192 360.75 192C300.792 192 240.833 192 180.875 192C120.917 192 60.9583 192 30.9792 192H1V33.1304Z" fill="#6C64FB" fill-opacity="0.5"/>
</svg>
